<?xml version="1.0" encoding="UTF-8" standalone="no"?>
<!-- Created with Inkscape (http://www.inkscape.org/) -->

<svg
   xmlns:dc="http://purl.org/dc/elements/1.1/"
   xmlns:cc="http://creativecommons.org/ns#"
   xmlns:rdf="http://www.w3.org/1999/02/22-rdf-syntax-ns#"
   xmlns:svg="http://www.w3.org/2000/svg"
   xmlns="http://www.w3.org/2000/svg"
   xmlns:sodipodi="http://sodipodi.sourceforge.net/DTD/sodipodi-0.dtd"
   xmlns:inkscape="http://www.inkscape.org/namespaces/inkscape"
   width="39mm"
   height="39mm"
   viewBox="0 0 39.000001 39"
   version="1.1"
   id="svg8"
   inkscape:export-filename="/home/gaojiangfeng/位图.png"
   inkscape:export-xdpi="96"
   inkscape:export-ydpi="96"
   inkscape:version="0.92.5 (2060ec1f9f, 2020-04-08)"
   sodipodi:docname="ls.svg">
  <defs
     id="defs2" />
  <sodipodi:namedview
     id="base"
     pagecolor="#ffffff"
     bordercolor="#666666"
     borderopacity="1.0"
     inkscape:pageopacity="0.0"
     inkscape:pageshadow="2"
     inkscape:zoom="0.71535494"
     inkscape:cx="107.84826"
     inkscape:cy="41.848546"
     inkscape:document-units="mm"
     inkscape:current-layer="layer1"
     showgrid="false"
     inkscape:window-width="1864"
     inkscape:window-height="1016"
     inkscape:window-x="56"
     inkscape:window-y="27"
     inkscape:window-maximized="1"
     fit-margin-top="0"
     fit-margin-left="0"
     fit-margin-right="0"
     fit-margin-bottom="0" />
  <metadata
     id="metadata5">
    <rdf:RDF>
      <cc:Work
         rdf:about="">
        <dc:format>image/svg+xml</dc:format>
        <dc:type
           rdf:resource="http://purl.org/dc/dcmitype/StillImage" />
        <dc:title></dc:title>
      </cc:Work>
    </rdf:RDF>
  </metadata>
  <g
     inkscape:label="Layer 1"
     inkscape:groupmode="layer"
     id="layer1"
     transform="translate(-76.465148,-120.57243)">
    <path
       style="fill:#5500d4;stroke-width:2.85714293"
       d="m 381.32505,535.11642 c -0.96614,-8.15751 -1.1911,-15.39735 -0.49991,-16.08854 0.69118,-0.69118 12.9529,1.01512 27.24826,3.79178 l 25.99157,5.04847 -24.79557,11.04006 c -13.63757,6.07204 -25.10881,11.04007 -25.49166,11.04007 -0.38284,0 -1.48655,-6.67433 -2.45269,-14.83184 z"
       id="path14"
       inkscape:connector-curvature="0"
       transform="scale(0.26458333)" />
    <path
       style="fill:#5500d4;stroke-width:2.85714293"
       d="m 356.57143,509.43378 c -5.5,-1.57095 -10.45504,-3.30289 -11.0112,-3.84876 -0.55615,-0.54587 4.57591,-10.81239 11.4046,-22.81449 l 12.41579,-21.822 1.82961,9.49986 c 1.00629,5.22493 2.63546,16.89272 3.62037,25.92844 1.99611,18.31265 1.46675,18.69119 -18.25917,13.05695 z"
       id="path16"
       inkscape:connector-curvature="0"
       transform="scale(0.26458333)" />
    <path
       style="fill:#5500d4;stroke-width:2.85714293"
       d="m 304.07366,517.91235 c -8.69626,-9.7626 -15.47022,-18.09134 -15.05326,-18.5083 0.41696,-0.41696 11.86775,1.38361 25.44622,4.00126 l 24.68811,4.75936 -7.72022,13.74603 c -4.24612,7.56032 -8.58181,13.74734 -9.63485,13.74894 -1.05305,0.002 -9.02975,-7.98468 -17.726,-17.74729 z"
       id="path18"
       inkscape:connector-curvature="0"
       transform="scale(0.26458333)" />
    <path
       style="fill:#5500d4;stroke-width:2.85714293"
       d="m 299.42857,585.29605 c 0,-2.10648 16.73895,-32.22431 20.90483,-37.61335 2.22385,-2.87681 4.9682,-1.64657 12.40399,5.56048 5.25158,5.09003 9.54832,10.75882 9.54832,12.5973 0,1.83849 -9.01131,7.37199 -20.02514,12.29667 -21.21869,9.48764 -22.832,9.99349 -22.832,7.1589 z"
       id="path20"
       inkscape:connector-curvature="0"
       transform="scale(0.26458333)" />
    <path
       style="fill:#5500d4;stroke-width:2.85714293"
       d="m 366.51844,586.53861 -16.54473,-17.87028 14.01314,-6.32755 c 7.70723,-3.48015 14.84362,-6.40645 15.85863,-6.50289 2.16524,-0.20573 6.56179,45.2269 4.56945,47.21925 -0.74347,0.74347 -8.79689,-6.68987 -17.89649,-16.51853 z"
       id="path22"
       inkscape:connector-curvature="0"
       transform="scale(0.26458333)" />
    <path
       style="fill:#55ddff;stroke-width:2.85714293"
       d="m 336.74152,554.08756 c -6.37927,-6.92068 -11.59866,-13.25397 -11.59866,-14.07397 0,-4.5098 16.24721,-29.9894 19.14508,-30.02417 1.88694,-0.0226 9.85776,1.33717 17.71294,3.02181 13.98255,2.99872 14.32054,3.31897 16.11225,15.26698 3.06089,20.41148 1.35006,24.02314 -14.94304,31.54555 l -14.82991,6.84686 z"
       id="path26"
       inkscape:connector-curvature="0"
       transform="scale(0.26458333)" />
  </g>
</svg>
